<svg xmlns="http://www.w3.org/2000/svg" xmlns:xlink="http://www.w3.org/1999/xlink" width="20" height="20"><circle fill-rule="evenodd" clip-rule="evenodd" fill="#E3C377" cx="10" cy="10" r="10"/><defs><circle id="a" cx="10" cy="10" r="10"/></defs><clipPath id="b"><use xlink:href="#a" overflow="visible"/></clipPath><g clip-path="url(#b)" stroke="#fff" stroke-width="2" stroke-miterlimit="10" fill="none"><line opacity=".3" x1="13" y1="-2.001" x2="-2.001" y2="13"/><line opacity=".3" x1="9" y1="-2.064" x2="-2.064" y2="9"/></g><path fill="#A58536" d="M10 2.5c4.136 0 7.5 3.364 7.5 7.5s-3.364 7.5-7.5 7.5-7.5-3.364-7.5-7.5 3.364-7.5 7.5-7.5m0-1c-4.695 0-8.5 3.805-8.5 8.5s3.805 8.5 8.5 8.5 8.5-3.805 8.5-8.5-3.805-8.5-8.5-8.5z"/><path fill="#A58536" d="M7.96 7.699l1.451 1.453.59.59.59-.59 1.451-1.452 1.78 1.781-3.821 3.821-3.822-3.821 1.781-1.782m4.081-1.179l-2.04 2.042-2.04-2.042-2.961 2.961 5.001 4.999 4.999-4.999-2.959-2.961z"/><image overflow="visible" width="476" height="396" xlink:href="FF19935BB02DA6D6.jpg" transform="matrix(.5 0 0 .5 601 621)"/><line stroke="#A58536" stroke-width=".833" stroke-miterlimit="10" x1="6.001" y1="9.481" x2="13.999" y2="9.481" fill="none"/><polyline stroke="#A58536" stroke-width=".833" stroke-miterlimit="10" points="10,13.812 12.041,9.481 12.041,7.521" fill="none"/><polyline stroke="#A58536" stroke-width=".833" stroke-miterlimit="10" points="7.961,7.521 7.961,9.481 10,13.812" fill="none"/></svg>