<?xml version="1.0" encoding="UTF-8"?>
<svg width="26px" height="23px" viewBox="0 0 26 23" version="1.1" xmlns="http://www.w3.org/2000/svg" xmlns:xlink="http://www.w3.org/1999/xlink">
    <!-- Generator: sketchtool 52.2 (67145) - http://www.bohemiancoding.com/sketch -->
    <title>A4C2098A-6F37-4F76-A12E-22A08CF1DB3C</title>
    <desc>Created with sketchtool.</desc>
    <g id="Your-Collection" stroke="none" stroke-width="1" fill="none" fill-rule="evenodd">
        <g id="55.0-Series-View---Replica" transform="translate(-423.000000, -220.000000)">
            <g id="Series-Info" transform="translate(374.000000, 210.000000)">
                <g id="icon-RE" transform="translate(49.000000, 8.000000)">
                    <rect id="bg" x="0" y="0" width="26" height="26"></rect>
                    <polygon id="Path-5" stroke="#FFFFFF" stroke-width="1.5" fill-opacity="0.700000048" fill="#000000" opacity="0.800000012" stroke-linejoin="round" points="1 11 13 23.5 25 11 18 3 13 8 8 3"></polygon>
                    <path d="M13.0046189,15.3 L11.2863741,15.3 L9.67898383,13.1468468 L8.38568129,13.1468468 L8.38568129,15.3 L7,15.3 L7,9.3 L10.3441109,9.3 C11.517321,9.3 12.3672055,10.1738739 12.3672055,11.2279279 C12.3672055,11.9756757 11.9422633,12.6333333 11.2309469,12.9486486 L13.0046189,15.3 Z M10.9445727,11.2279279 C10.9445727,10.7234234 10.5473441,10.3900901 10.0669746,10.3900901 L8.38568129,10.3900901 L8.38568129,12.0927928 L10.0669746,12.0927928 C10.5473441,12.0927928 10.9445727,11.7324324 10.9445727,11.2279279 Z M19,15.3 L14.482679,15.3 L14.482679,9.3 L19,9.3 L19,10.4621622 L15.8683603,10.4621622 L15.8683603,11.6243243 L18.8244804,11.6243243 L18.8244804,12.7864865 L15.8683603,12.7864865 L15.8683603,14.1378378 L19,14.1378378 L19,15.3 Z" id="RE" fill="#FFFFFF" opacity="0.900000036"></path>
                </g>
            </g>
        </g>
    </g>
</svg>