<?xml version="1.0" encoding="utf-8"?>
<!-- Generator: Adobe Illustrator 22.1.0, SVG Export Plug-In . SVG Version: 6.00 Build 0)  -->
<svg version="1.1" id="Layer_1" xmlns="http://www.w3.org/2000/svg" xmlns:xlink="http://www.w3.org/1999/xlink" x="0px" y="0px"
	 viewBox="0 0 26 26" style="enable-background:new 0 0 26 26;" xml:space="preserve">
<style type="text/css">
	.st0{filter:url(#Adobe_OpacityMaskFilter);}
	.st1{fill:#FFFFFF;}
	.st2{opacity:0.9;mask:url(#mask-2_1_);}
	.st3{fill-opacity:0.8;stroke:#FFFFFF;stroke-width:1.5;stroke-linejoin:round;}
	.st4{fill:none;}
	.st5{opacity:0.9;fill:#FFFFFF;enable-background:new    ;}
</style>
<title>662140C4-E42B-4287-A7D3-CEA94D4607B3</title>
<desc>Created with sketchtool.</desc>
<g id="Master-Document">
	<g id="Neonmob---Master-Assets" transform="translate(-96.000000, -381.000000)">
		<g id="LE" transform="translate(96.000000, 381.000000)">
			<g id="Mask">
			</g>
			<defs>
				<filter id="Adobe_OpacityMaskFilter" filterUnits="userSpaceOnUse" x="0.5" y="0.5" width="25" height="25">
					<feColorMatrix  type="matrix" values="1 0 0 0 0  0 1 0 0 0  0 0 1 0 0  0 0 0 1 0"/>
				</filter>
			</defs>
			<mask maskUnits="userSpaceOnUse" x="0.5" y="0.5" width="25" height="25" id="mask-2_1_">
				<g class="st0">
					<rect id="path-1_1_" class="st1" width="26" height="26"/>
				</g>
			</mask>
			<g id="Combined-Shape" class="st2">
				<g transform="translate(2.000000, 2.000000)">
					<path class="st3" d="M11,22.8C4.5,22.8-0.8,17.5-0.8,11S4.5-0.8,11-0.8S22.8,4.5,22.8,11S17.5,22.8,11,22.8z M12,14.6 M12,10.9
						"/>
				</g>
			</g>
		</g>
	</g>
</g>
<g id="Your-Collection">
	<g id="_x35_5.0-Series-View---Replica" transform="translate(-423.000000, -220.000000)">
		<g id="Series-Info" transform="translate(374.000000, 210.000000)">
			<g id="icon-RE" transform="translate(49.000000, 8.000000)">
				<rect id="bg" x="35.4" y="-11" class="st4" width="26" height="26"/>
				<path id="RE" class="st5" d="M12.7,17.9H8.2v-6h1.4l0,1.2l0,0v1.2v1.2l0,0l0,0v1.4h3.1V17.9z M18.3,17.9h-4.5v-6h4.5V13h-3.1
					v1.2h3v1.2h-3v1.4h3.1V17.9z"/>
			</g>
		</g>
	</g>
</g>
</svg>
