<?xml version="1.0" encoding="UTF-8"?>
<svg width="13px" height="13px" viewBox="0 0 13 13" version="1.1" xmlns="http://www.w3.org/2000/svg" xmlns:xlink="http://www.w3.org/1999/xlink">
    <!-- Generator: sketchtool 52.6 (67491) - http://www.bohemiancoding.com/sketch -->
    <title>BAC796D2-41DE-4374-902F-0E1BD02CBD79</title>
    <desc>Created with sketchtool.</desc>
    <defs>
        <polygon id="path-1" points="6.5007 4.91092965 5.0727 3.5 3 5.54591709 6.5007 9 10 5.54591709 7.9294 3.5"></polygon>
        <filter x="-57.1%" y="-36.4%" width="214.3%" height="245.5%" filterUnits="objectBoundingBox" id="filter-2">
            <feOffset dx="0" dy="2" in="SourceAlpha" result="shadowOffsetOuter1"></feOffset>
            <feGaussianBlur stdDeviation="1" in="shadowOffsetOuter1" result="shadowBlurOuter1"></feGaussianBlur>
            <feColorMatrix values="0 0 0 0 1   0 0 0 0 0.650980392   0 0 0 0 0  0 0 0 0.3 0" type="matrix" in="shadowBlurOuter1"></feColorMatrix>
        </filter>
    </defs>
    <g id="PRO" stroke="none" stroke-width="1" fill="none" fill-rule="evenodd">
        <g id="209.1-PRO---Series-Completed" transform="translate(-618.000000, -326.000000)">
            <g id="Series-Completed" transform="translate(500.000000, 206.000000)">
                <g id="Group-7" transform="translate(118.000000, 118.000000)">
                    <g id="Icon-/-Pro" transform="translate(0.000000, 2.000000)">
                        <g>
                            <rect id="bg" fill-rule="nonzero" x="0" y="0" width="13" height="13"></rect>
                            <path d="M1,1.4936174 L1,5.71166126 C1,9.84759368 5.7485625,12.1460239 6.4539375,12.4661895 L6.5020625,12.4855099 L6.5460625,12.4661895 C7.2514375,12.1846646 12,10.094618 12,5.71166126 L12,1.4936174 C12,1.4936174 9.886625,0.5 6.627875,0.5 C4.9985,0.5 3.0824375,0.74840435 1,1.4936174 Z" id="Path" fill="#FFD63D" fill-rule="nonzero"></path>
                            <path d="M0.75,1.31755591 L0.915767016,1.25823516 C2.85243946,0.565185025 4.76684723,0.25 6.627875,0.25 C8.07625118,0.25 9.41040318,0.439336094 10.6001162,0.755178608 C11.017604,0.866012401 11.3876286,0.98495864 11.7064494,1.104208 C11.8997572,1.17651141 12.0343108,1.23349635 12.1063693,1.26737514 L12.25,1.33490406 L12.25,5.71166135 C12.25,7.73068383 11.3015564,9.42860038 9.70130497,10.8158627 C8.67531013,11.7053004 7.54417748,12.3370043 6.64657426,12.6950945 L6.50639909,12.7566452 L6.40892259,12.7175121 L6.35060965,12.6938372 C6.02526788,12.5461664 5.62528654,12.3403154 5.17599018,12.0719736 C4.51573352,11.677636 3.87798418,11.2227798 3.29652534,10.7068354 C1.69765738,9.28811588 0.75,7.62193124 0.75,5.71166135 L0.75,1.31755591 Z M1.25,1.67060669 L1.25,5.7116611 C1.25,7.45866683 2.12700383,9.00062732 3.62838091,10.3328404 C4.18470877,10.8264854 4.79741895,11.2634831 5.4323692,11.6427065 C5.84352291,11.8882676 6.21073242,12.0789002 6.50296409,12.2139606 C6.79146098,12.0959029 7.16451384,11.9187536 7.57392375,11.6901104 C8.20664176,11.3367563 8.81844091,10.9194944 9.37378878,10.4380618 C10.8732563,9.13816945 11.75,7.56861103 11.75,5.7116611 L11.75,1.65779719 C11.6907553,1.63355659 11.6177099,1.60484707 11.531285,1.57252134 C11.2274886,1.45889163 10.87306,1.34495879 10.4718213,1.23843878 C9.32231557,0.933270428 8.03090507,0.75 6.627875,0.75 C4.87591591,0.75 3.07451674,1.03810393 1.25,1.67060669 Z" id="Path" fill="#D08700" fill-rule="nonzero"></path>
                            <path d="M2.25,5.7116611 C2.25,7.13213865 2.98569672,8.42565099 4.29209207,9.58485143 C4.79815796,10.0338976 5.36078981,10.4351784 5.94512723,10.7841733 C6.15230006,10.9079071 6.34672553,11.0161677 6.52460733,11.1092663 C6.69647092,11.0266369 6.88622729,10.9287911 7.08633752,10.8170356 C7.66266755,10.4951724 8.21878899,10.1158841 8.7187564,9.682461 C10.016656,8.55730839 10.75,7.24446608 10.75,5.7116611 L10.75,2.36053722 C10.5842681,2.30776439 10.4058285,2.25555845 10.2152315,2.20495918 C9.14614034,1.92113911 7.94021283,1.75 6.627875,1.75 C5.19981529,1.75 3.73569617,1.95426441 2.25,2.39840597 L2.25,5.7116611 Z M1,1.4936174 C3.0824375,0.74840435 4.9985,0.5 6.627875,0.5 C9.886625,0.5 12,1.4936174 12,1.4936174 L12,5.71166126 C12,10.094618 7.2514375,12.1846646 6.5460625,12.4661895 L6.5020625,12.4855099 L6.4539375,12.4661895 C5.7485625,12.1460239 1,9.84759368 1,5.71166126 L1,1.4936174 Z" id="Path" fill="#FFA600" fill-rule="nonzero"></path>
                            <g id="Imported-Layers-2">
                                <use fill="black" fill-opacity="1" filter="url(#filter-2)" xlink:href="#path-1"></use>
                                <use fill="#FFFFFF" fill-rule="evenodd" xlink:href="#path-1"></use>
                            </g>
                        </g>
                    </g>
                </g>
            </g>
        </g>
    </g>
</svg>