
<svg width="22px" height="22px" viewBox="0 0 22 22" version="1.1" xmlns="http://www.w3.org/2000/svg" xmlns:xlink="http://www.w3.org/1999/xlink">
    <!-- Generator: Sketch 46.2 (44496) - http://www.bohemiancoding.com/sketch -->
    <desc>Created with Sketch.</desc>
    <defs></defs>
    <g id="Page-1" stroke="none" stroke-width="1" fill="none" fill-rule="evenodd">
        <g id="22.3-Points---320" transform="translate(-252.000000, -14.000000)" stroke-width="2" stroke="#A19FA2">
            <g id="Header">
                <g id="Group-5" transform="translate(143.000000, 11.000000)">
                    <g id="Group-13">
                        <g id="Group-12" transform="translate(101.000000, 0.000000)">
                            <g id="Points" transform="translate(9.000000, 4.000000)">
                                <path d="M10,2.27968462 L7.98917849,6.39915173 L3.46573617,7.06356271 L6.73984039,10.2902692 L5.96967709,14.8294476 L10,12.6873952 L14.0303229,14.8294476 L13.2601596,10.2902692 L16.5342638,7.06356271 L12.0108215,6.39915173 L10,2.27968462 Z" id="Page-1"></path>
                                <path d="M10,17 L10,19.7487371" id="Line-2" opacity="0.400000006" stroke-linecap="square"></path>
                                <path d="M16.942809,0.723857625 L14.9991584,2.66750826" id="Line-2" opacity="0.400000006" stroke-linecap="square"></path>
                                <path d="M4.6103173,0.666666667 L2.66666667,2.6103173" id="Line-2" opacity="0.400000006" stroke-linecap="square" transform="translate(3.638492, 1.638492) scale(-1, 1) translate(-3.638492, -1.638492) "></path>
                                <path d="M0.448253911,13.6590096 L2.82873005,12.284641" id="Line-2" opacity="0.400000006" stroke-linecap="square"></path>
                                <path d="M17.1149206,13.6590096 L19.4953967,12.284641" id="Line-2" opacity="0.400000006" stroke-linecap="square" transform="translate(18.305159, 12.971825) scale(-1, 1) translate(-18.305159, -12.971825) "></path>
                            </g>
                        </g>
                    </g>
                </g>
            </g>
        </g>
    </g>
</svg>