<?xml version="1.0" encoding="UTF-8" standalone="no"?>
<svg width="244px" height="482px" viewBox="0 0 244 482" version="1.1" xmlns="http://www.w3.org/2000/svg" xmlns:xlink="http://www.w3.org/1999/xlink" xmlns:sketch="http://www.bohemiancoding.com/sketch/ns">
    <!-- Generator: Sketch 3.1 (8751) - http://www.bohemiancoding.com/sketch -->
    <title>Fill 2</title>
    <desc>Created with Sketch.</desc>
    <defs></defs>
    <g id="Page-2" stroke="none" stroke-width="1" fill="none" fill-rule="evenodd" sketch:type="MSPage">
        <path d="M126.36,122 L117.36,122 C106.134,122 97,112.867 97,101.64 L97,101.36 C97,90.133 106.134,81 117.36,81 L131,81 C134.507,81 137.36,78.147 137.36,74.64 L137.36,74.36 C137.36,70.853 134.507,68 131,68 L108.36,68 C97.134,68 88,58.867 88,47.64 L88,47.36 C88,36.133 97.134,27 108.36,27 L131,27 C134.507,27 137.36,24.147 137.36,20.64 L137.36,20.36 C137.36,16.853 134.507,14 131,14 L131,0 C142.227,0 151.36,9.133 151.36,20.36 L151.36,20.64 C151.36,31.867 142.227,41 131,41 L108.36,41 C104.854,41 102,43.853 102,47.36 L102,47.64 C102,51.147 104.854,54 108.36,54 L131,54 C142.227,54 151.36,63.133 151.36,74.36 L151.36,74.64 C151.36,85.867 142.227,95 131,95 L117.36,95 C113.854,95 111,97.853 111,101.36 L111,101.64 C111,105.147 113.854,108 117.36,108 L126.36,108 L126.36,122" id="Fill-1" fill="#2C2830" sketch:type="MSShapeGroup"></path>
        <path d="M206,146 L38,146 C17.047,146 0,163.047 0,184 L0,444 L25,444 L25,482 L219,482 L219,444 L244,444 L244,184 C244,163.047 226.953,146 206,146 L206,146 Z M39,446 L205,446 L205,468 L39,468 L39,446 Z M230,430 L14,430 L14,184 C14,170.745 24.745,160 38,160 L206,160 C219.255,160 230,170.745 230,184 L230,430 L230,430 Z" id="Fill-2" fill="#2C2830" sketch:type="MSShapeGroup"></path>
        <path d="M202,385 C202.552,385 203,385.448 203,386 L203,402 C203,402.552 202.552,403 202,403 L177,403 C176.448,403 176,402.552 176,402 L176,386 C176,385.448 176.448,385 177,385 L202,385 M202,371 L177,371 C168.729,371 162,377.729 162,386 L162,402 C162,410.271 168.729,417 177,417 L202,417 C210.271,417 217,410.271 217,402 L217,386 C217,377.729 210.271,371 202,371" id="Fill-3" fill="#2C2830" sketch:type="MSShapeGroup"></path>
        <path d="M200,187 C201.657,187 203,188.343 203,190 L203,319 C203,320.657 201.657,322 200,322 L44,322 C42.343,322 41,320.657 41,319 L41,190 C41,188.343 42.343,187 44,187 L200,187 M200,173 L44,173 C34.626,173 27,180.626 27,190 L27,319 C27,328.374 34.626,336 44,336 L200,336 C209.374,336 217,328.374 217,319 L217,190 C217,180.626 209.374,173 200,173" id="Fill-4" fill="#2C2830" sketch:type="MSShapeGroup"></path>
        <path d="M122,387 L167,387 L167,401 L122,401 L122,387 Z" id="Fill-5" fill="#2C2830" sketch:type="MSShapeGroup"></path>
        <path d="M129,266 L104,266 L104,252 L115,252 L115,214 L129,214 L129,266" id="Fill-6" fill="#2C2830" sketch:type="MSShapeGroup"></path>
        <path d="M70,214 L84,214 L84,241 L70,241 L70,214 Z" id="Fill-7" fill="#2C2830" sketch:type="MSShapeGroup"></path>
        <path d="M160,214 L174,214 L174,241 L160,241 L160,214 Z" id="Fill-8" fill="#2C2830" sketch:type="MSShapeGroup"></path>
        <path d="M147,308.5 L133,308.5 C133,299.953 126.047,293 117.5,293 C108.953,293 102,299.953 102,308.5 L88,308.5 C88,292.233 101.233,279 117.5,279 C133.767,279 147,292.233 147,308.5" id="Fill-9" fill="#2C2830" sketch:type="MSShapeGroup"></path>
        <path d="M58.333,385 C58.702,385 59,385.448 59,386 L59,402 C59,402.552 58.702,403 58.333,403 L41.667,403 C41.299,403 41,402.552 41,402 L41,386 C41,385.448 41.299,385 41.667,385 L58.333,385 M58.333,371 L41.667,371 C33.579,371 27,377.729 27,386 L27,402 C27,410.271 33.579,417 41.667,417 L58.333,417 C66.421,417 73,410.271 73,402 L73,386 C73,377.729 66.421,371 58.333,371" id="Fill-10" fill="#2C2830" sketch:type="MSShapeGroup"></path>
    </g>
</svg>