<?xml version="1.0" encoding="UTF-8" standalone="no"?>
<svg width="730px" height="580px" viewBox="0 0 730 580" version="1.1" xmlns="http://www.w3.org/2000/svg" xmlns:xlink="http://www.w3.org/1999/xlink" xmlns:sketch="http://www.bohemiancoding.com/sketch/ns">
    <!-- Generator: Sketch 3.1 (8751) - http://www.bohemiancoding.com/sketch -->
    <title>Imported Layers</title>
    <desc>Created with Sketch.</desc>
    <defs></defs>
    <g id="Page-1" stroke="none" stroke-width="1" fill="none" fill-rule="evenodd" sketch:type="MSPage">
        <path d="M543.835,437.247 C545.549,456.695 561.917,472 581.803,472 C602.825,472 619.928,454.897 619.928,433.875 L619.928,429.375 L605.928,429.375 C605.928,435.233 601.161,440 595.303,440 C589.444,440 584.678,435.233 584.678,429.375 L584.678,416.422 L584.638,416.422 C583.815,359.003 561.084,305.143 520.39,264.449 C478.933,222.992 423.814,200.161 365.185,200.161 L294.54,200.161 C295.94,193.155 296.677,185.912 296.677,178.5 C296.677,176.007 296.586,173.536 296.423,171.084 C333.048,159.51 359.677,125.22 359.677,84.818 L359.677,14 L328.132,14 C285.907,14 250.365,43.09 240.449,82.277 C224.409,73.194 205.889,68 186.177,68 C166.49,68 147.992,73.181 131.966,82.243 C122.134,42.935 86.534,13.727 44.223,13.727 L12.677,13.727 L12.677,84.546 C12.677,124.954 39.315,159.248 75.949,170.816 C75.774,173.356 75.677,175.917 75.677,178.5 C75.677,198.098 80.813,216.516 89.8,232.491 C80.81,248.47 75.677,266.896 75.677,286.5 L75.677,293.5 L159.662,293.5 C172.393,361.541 224.688,415.82 291.677,431.447 L291.677,485.675 C276.293,488.803 264.677,502.436 264.677,518.73 L264.677,526 L332.677,526 L332.677,471.169 C339.914,479.102 343.877,489.301 343.877,500.11 L343.877,531.091 C329.316,534.883 318.677,548.132 318.677,563.73 L318.677,571 L384.877,571 L384.877,526 L427.577,526 L452.751,500.826 L470.925,519 L459.925,530 L451.677,530 C438.659,530 419.825,541.979 419.825,563.64 L419.825,571 L483.724,571 L514.511,540.213 C526.207,528.517 526.207,509.483 514.511,497.786 L505.381,488.656 C503.87,487.145 503.038,485.137 503.038,483 C503.038,480.863 503.87,478.854 505.381,477.344 L543.835,437.247 L543.835,437.247 Z M328.132,28 L345.677,28 L345.677,84.818 C345.677,118.097 324.298,146.458 294.558,156.935 C289.211,130.016 274.056,106.589 252.985,90.545 C259.545,55.011 290.727,28 328.132,28 L328.132,28 Z M186.177,82 C239.388,82 282.677,125.29 282.677,178.5 C282.677,193.004 279.447,206.763 273.69,219.116 C253.466,192.912 221.762,176 186.177,176 C185.866,176 185.557,176.009 185.247,176.012 C185.091,176.01 184.938,176 184.782,176 C184.313,176 183.849,176.017 183.385,176.035 C183.348,176.036 183.311,176.037 183.274,176.038 C183.165,176.043 183.055,176.045 182.945,176.051 C178.774,176.171 174.662,176.532 170.618,177.105 C170.654,176.074 170.677,175.04 170.677,174 C170.677,142.958 154.511,115.633 130.165,99.963 C145.969,88.66 165.309,82 186.177,82 L186.177,82 Z M203.662,203.136 L165.902,203.136 C168.683,195.658 175.789,190.28 184.162,190.024 C184.477,190.018 184.794,190.016 185.11,190.013 C193.61,190.15 200.849,195.571 203.662,203.136 L203.662,203.136 Z M26.677,84.546 L26.677,27.727 L44.223,27.727 C81.711,27.727 112.95,54.859 119.414,90.511 C98.387,106.505 83.241,129.848 77.845,156.679 C48.08,146.216 26.677,117.842 26.677,84.546 L26.677,84.546 Z M89.677,178.5 C89.677,151.47 100.853,127.004 118.821,109.468 C141.389,122.156 156.677,146.318 156.677,174 C156.677,176.045 156.593,178.071 156.43,180.075 C133.197,186.577 113.032,200.498 98.663,219.113 C92.907,206.76 89.677,193.002 89.677,178.5 L89.677,178.5 Z M153.929,195.546 C151.828,199.973 150.647,204.918 150.647,210.136 L150.647,217.136 L218.917,217.136 L218.917,210.136 C218.917,204.472 217.522,199.131 215.071,194.424 C252.073,206.062 279.539,239.43 282.426,279.5 L232.677,279.5 L232.677,249 C232.677,245.686 229.991,243 226.677,243 C223.364,243 220.677,245.686 220.677,249 L220.677,255.359 C212.161,245.934 199.85,240 186.177,240 C172.504,240 160.193,245.934 151.677,255.359 L151.677,249 C151.677,245.686 148.991,243 145.677,243 C142.364,243 139.677,245.686 139.677,249 L139.677,279.5 L89.929,279.5 C92.728,240.65 118.631,208.099 153.929,195.546 L153.929,195.546 Z M152.399,279.5 C155.644,263.822 169.552,252 186.177,252 C202.802,252 216.711,263.822 219.956,279.5 L152.399,279.5 L152.399,279.5 Z M318.677,512 L279.859,512 C282.617,504.425 289.891,499 298.407,499 L305.677,499 L305.677,444.1 L318.677,457.1 L318.677,512 L318.677,512 Z M421.778,512 L384.877,512 L384.877,499.167 C385.485,499.059 386.045,499 386.53,499 L409.577,499 L430.251,478.326 L442.851,490.926 L421.778,512 L421.778,512 Z M384.877,485.069 L384.877,432.953 L420.351,468.426 L403.778,485 L386.53,485 C385.99,485 385.436,485.028 384.877,485.069 L384.877,485.069 Z M504.611,507.686 C510.85,513.925 510.85,524.075 504.611,530.313 L477.925,557 L434.929,557 C438.139,547.942 447.503,544 451.677,544 L465.724,544 L482.238,527.485 C484.505,525.219 485.753,522.206 485.753,519 C485.753,515.794 484.505,512.781 482.239,510.515 L384.201,412.477 C363.536,391.812 363.536,358.187 384.201,337.523 L420.767,298.806 L410.588,289.194 L374.228,327.696 C370.276,331.66 366.934,336.004 364.182,340.605 L339.627,316.051 L329.727,325.949 L358.006,354.229 C350.968,375.922 355.259,400.506 370.877,418.656 L370.877,557 L333.857,557 C336.478,549.781 343.198,544.491 351.272,544.036 L357.877,543.663 L357.877,500.11 C357.877,484.885 351.948,470.571 341.182,459.805 L264.272,382.894 C256.15,374.773 251.677,363.975 251.677,352.489 L251.677,312 L237.677,312 L237.677,352.489 C237.677,367.714 243.606,382.028 254.373,392.795 L272.306,410.729 C222.52,390.979 184.864,347.049 173.927,293.5 L296.677,293.5 L296.677,286.5 C296.677,266.898 291.54,248.476 282.551,232.497 C285.819,226.689 288.57,220.554 290.758,214.161 L365.185,214.161 C478.494,214.161 570.678,306.345 570.678,419.653 L570.678,429.375 C570.678,442.884 581.612,453.887 595.096,453.999 C591.281,456.526 586.711,458 581.803,458 C568.5,458 557.678,447.178 557.678,433.875 L557.678,420 L545.626,415.155 L495.425,467.501 C491.305,471.649 489.038,477.15 489.038,483 C489.038,488.877 491.326,494.401 495.481,498.557 L504.611,507.686 Z M114.177,195 C121.633,195 127.677,188.956 127.677,181.5 C127.677,174.044 121.633,168 114.177,168 C106.721,168 100.677,174.044 100.677,181.5 C100.677,188.956 106.721,195 114.177,195 Z M258.177,195 C265.633,195 271.677,188.956 271.677,181.5 C271.677,174.044 265.633,168 258.177,168 C250.721,168 244.677,174.044 244.677,181.5 C244.677,188.956 250.721,195 258.177,195 Z M697,352 L611.5,352 C607.916,352 605,349.084 605,345.5 C605,341.916 607.916,339 611.5,339 L647.5,339 C658.804,339 668,329.804 668,318.5 C668,307.196 658.804,298 647.5,298 L647.5,312 C651.084,312 654,314.916 654,318.5 C654,322.084 651.084,325 647.5,325 L611.5,325 C600.196,325 591,334.196 591,345.5 C591,356.804 600.196,366 611.5,366 L697,366 C700.584,366 703.5,368.916 703.5,372.5 C703.5,376.084 700.584,379 697,379 L638.5,379 C627.196,379 618,388.196 618,399.5 C618,410.804 627.196,420 638.5,420 L647.5,420 C651.084,420 654,422.916 654,426.5 C654,430.084 651.084,433 647.5,433 L647.5,447 C658.804,447 668,437.804 668,426.5 C668,415.196 658.804,406 647.5,406 L638.5,406 C634.916,406 632,403.084 632,399.5 C632,395.916 634.916,393 638.5,393 L697,393 C708.304,393 717.5,383.804 717.5,372.5 C717.5,361.196 708.304,352 697,352 Z M695.368,513.33 C695.79,511.798 696.034,510.193 696.034,508.529 C696.034,498.553 687.917,490.435 677.94,490.435 L677.94,504.436 C680.197,504.436 682.034,506.272 682.034,508.529 C682.034,510.787 680.197,512.624 677.94,512.624 L648.244,512.624 C646.048,512.624 644.262,510.837 644.262,508.641 L644.262,508.419 C644.262,506.223 646.048,504.436 648.244,504.436 L650.41,504.436 C663.333,504.436 673.846,493.923 673.846,481 L659.846,481 C659.846,486.203 655.613,490.435 650.41,490.435 L648.244,490.435 C638.328,490.435 630.262,498.503 630.262,508.419 L630.262,508.641 C630.262,510.328 630.512,511.955 630.949,513.504 C623.681,515.855 618.407,522.679 618.407,530.718 C618.407,532.127 618.586,533.494 618.892,534.811 L618.66,534.811 C608.744,534.811 600.678,542.879 600.678,552.795 L600.678,553.017 C600.678,562.933 608.744,571 618.66,571 L689.034,571 C705.006,571 718,558.006 718,542.034 L718,541.59 C718,527.794 708.302,516.227 695.368,513.33 Z M704,542.034 C704,550.286 697.286,557 689.034,557 L618.66,557 C616.464,557 614.678,555.213 614.678,553.017 L614.678,552.795 C614.678,550.599 616.464,548.811 618.66,548.811 L688.678,548.811 L688.678,534.811 L636.501,534.811 C634.244,534.811 632.407,532.975 632.407,530.718 C632.407,528.461 634.244,526.624 636.501,526.624 L689.034,526.624 C697.286,526.624 704,533.338 704,541.59 L704,542.034 L704,542.034 Z" id="Fill-1" fill="#2C2830" sketch:type="MSShapeGroup"></path>
    </g>
</svg>