<svg width="20" height="20" xmlns="http://www.w3.org/2000/svg" xmlns:sketch="http://www.bohemiancoding.com/sketch/ns"><title>unowned-dark</title><desc>Created with Sketch.</desc><path d="M10 2c-4.418 0-8 3.582-8 8s3.582 8 8 8 8-3.582 8-8-3.582-8-8-8zm-6 8c0-1.294.413-2.492 1.112-3.473l8.361 8.361c-.981.699-2.18 1.112-3.473 1.112-3.308 0-6-2.692-6-6zm10.888 3.473l-8.361-8.361c.981-.699 2.18-1.112 3.473-1.112 3.308 0 6 2.692 6 6 0 1.294-.413 2.492-1.112 3.473z" sketch:type="MSShapeGroup" fill="#2C2830"/></svg>